<svg width="277" height="56" viewBox="0 0 277 56" fill="none" xmlns="http://www.w3.org/2000/svg">
<path d="M95.0674 31.9774L92.2552 32.6839V39.6701C89.443 40.6121 84.8341 41.554 81.0846 41.554C71.8669 41.554 64.6021 36.5303 64.6021 27.7386C64.6021 17.848 72.4918 13.1382 80.4596 13.1382C84.2092 13.1382 88.5837 13.6877 91.9427 15.0221L91.1615 23.4998L87.8807 23.9708L87.2557 17.691C85.9278 17.063 83.5062 16.5135 81.1627 16.5135C76.0851 16.5135 71.4763 19.7319 71.4763 27.5816C71.4763 34.1753 75.5383 38.1787 81.5533 38.1787C83.0375 38.1787 84.9904 37.8647 86.0059 37.5507V32.7624L80.8502 32.0559L81.2408 28.8376H95.3017L95.0674 31.9774Z" fill="white"/>
<path d="M102.723 41.0043L102.957 37.7859L107.566 37.0795V17.5337L102.723 16.8273L103.035 13.6089H118.737L118.58 16.8273L113.893 17.5337V37.0795L118.58 37.7859L118.737 41.0043H102.723Z" fill="white"/>
<path d="M151.233 41.2398C150.139 41.0828 147.561 41.0043 145.999 41.0043H127.329L127.564 37.7859L132.172 37.0795V17.5337L127.329 16.8273L127.642 13.6089H143.577L143.343 16.8273L138.422 17.5337V37.3149H146.78L148.108 30.7997L151.467 31.4277L151.233 41.2398Z" fill="white"/>
<path d="M185.916 41.0043L186.073 37.7859L190.603 37.0795C190.213 32.9191 189.822 24.9909 189.744 20.7521C187.323 25.3834 183.104 35.0385 181.073 41.0043H176.23C174.121 35.3525 170.137 26.0899 167.559 20.7521C167.481 25.2264 166.934 33.3116 166.622 37.0795L170.918 37.7859L171.152 41.0043H158.107L158.341 37.7859L162.638 37.0795C163.263 30.9567 164.044 21.0661 164.122 17.5337L159.279 16.8273L159.513 13.6089H170.449C172.871 18.2402 177.246 27.8168 179.745 34.3321C182.011 28.3663 186.541 18.5542 189.119 13.6089H199.977L200.212 16.8273L195.29 17.5337C195.368 22.7145 195.993 31.3492 196.696 37.0795L200.993 37.7859L201.227 41.0043H185.916Z" fill="white"/>
<path d="M222.943 41.0043L223.178 37.7859L227.396 37.0795C226.771 35.6665 225.834 33.8611 225.209 32.2126H215.522C214.976 33.6256 213.804 35.9805 213.335 37.0795L217.319 37.7859L217.632 41.0043H204.82L205.055 37.7859L208.414 37.0795C211.382 31.2707 216.304 19.8101 218.491 13.6089H224.193C226.146 19.1822 231.614 31.9772 234.427 37.0795L237.786 37.7859L238.02 41.0043H222.943ZM220.444 19.2607H220.209C219.428 21.6941 217.788 26.3254 216.772 28.6803H224.037C222.709 25.5404 221.303 21.7726 220.444 19.2607Z" fill="white"/>
<path d="M276.844 16.8273L273.016 17.5337V40.8473L268.954 41.4753C264.111 35.3525 255.752 25.3049 250.831 20.1241L251.065 37.0794L256.455 37.7859L256.612 41.0043H242.16L242.394 37.7859L247.003 37.0794V17.5337L242.16 16.8273L242.473 13.6089H252.472C257.862 19.0252 264.736 26.8749 269.11 32.5266L268.798 17.5337L263.173 16.8273L263.486 13.6089H277L276.844 16.8273Z" fill="white"/>
<path d="M41.636 8.34962C42.1047 8.34962 42.4172 8.74211 42.4172 9.21309C42.4172 9.68407 42.0266 10.0766 41.636 10.0766C41.636 10.5475 41.2454 10.94 40.8549 10.94C40.3862 10.94 40.0737 10.626 40.0737 10.1551H37.574V12.667C37.9646 12.667 38.3551 13.0594 38.3551 13.5304C38.3551 14.0014 37.9646 14.3939 37.574 14.3939C37.574 14.8649 37.1834 15.2573 36.7928 15.2573C36.3241 15.2573 36.0117 14.8649 36.0117 14.3939C35.543 14.3939 35.2305 14.0014 35.2305 13.5304C35.2305 13.0594 35.543 12.7454 36.0117 12.667V10.0766H33.5119C33.5119 10.5475 33.1214 10.8615 32.7308 10.8615C32.2621 10.8615 31.9496 10.469 31.9496 9.99806C31.4809 9.99806 31.1685 9.60557 31.1685 9.13459C31.1685 8.66361 31.559 8.27113 31.9496 8.27113C31.9496 7.80014 32.3402 7.40766 32.7308 7.40766C33.1995 7.40766 33.5119 7.72165 33.5119 8.19263H36.0117V5.68073C35.6211 5.68073 35.2305 5.28824 35.2305 4.81726C35.2305 4.34628 35.6211 3.9538 36.0117 3.9538C36.0117 3.48282 36.4022 3.09033 36.7928 3.09033C37.2615 3.09033 37.574 3.48282 37.574 3.9538C38.0427 3.9538 38.3551 4.34628 38.3551 4.81726C38.3551 5.28824 38.0427 5.60223 37.574 5.68073V8.27113H40.0737C40.0737 7.80014 40.4643 7.48616 40.8549 7.48616C41.3236 7.48616 41.636 7.87864 41.636 8.34962Z" fill="white"/>
<path d="M15.0764 8.35109C15.5451 8.35109 15.8575 8.74357 15.8575 9.21455C15.8575 9.68554 15.4669 10.078 15.0764 10.078C15.0764 10.549 14.6858 10.9415 14.2952 10.9415C13.8265 10.9415 13.514 10.6275 13.514 10.1565H11.0143V12.6684C11.4049 12.6684 11.7955 13.0609 11.7955 13.5319C11.7955 14.0029 11.4049 14.3953 11.0143 14.3953C11.0143 14.8663 10.6237 15.2588 10.2332 15.2588C9.76447 15.2588 9.452 14.8663 9.452 14.3953C8.98331 14.3953 8.67084 14.0029 8.67084 13.5319C8.67084 13.0609 8.98331 12.7469 9.452 12.6684V10.078H6.71794C6.71794 10.549 6.32736 10.863 5.93677 10.863C5.46808 10.863 5.15561 10.4705 5.15561 9.99952C4.68692 9.99952 4.37445 9.60704 4.37445 9.13606C4.37445 8.66508 4.76503 8.27259 5.15561 8.27259C5.15561 7.80161 5.54619 7.40913 5.93677 7.40913C6.40547 7.40913 6.71794 7.72311 6.71794 8.19409H9.21765V5.68219C8.82707 5.68219 8.43649 5.28971 8.43649 4.81873C8.43649 4.34775 8.82707 3.95526 9.21765 3.95526C9.21765 3.48428 9.60823 3.0918 9.99882 3.0918C10.4675 3.0918 10.78 3.48428 10.78 3.95526C11.2487 3.95526 11.5611 4.34775 11.5611 4.81873C11.5611 5.28971 11.2487 5.6037 10.78 5.68219V8.27259H13.2797C13.2797 7.80161 13.6703 7.48762 14.0609 7.48762C14.6858 7.48762 15.0764 7.88011 15.0764 8.35109Z" fill="white"/>
<path d="M25.3878 35.5106L24.841 36.06H25.3878V35.5106ZM21.5601 37.787H21.1695V39.0429H21.5601C21.8726 39.0429 22.185 38.8074 22.185 38.4149C22.185 38.0225 21.8726 37.787 21.5601 37.787ZM27.4969 38.0225C27.4969 37.8655 27.3407 37.7085 27.1845 37.7085H26.5595V38.2579H27.1845C27.3407 38.3364 27.4969 38.1794 27.4969 38.0225ZM30.4653 33.8621C30.0748 34.0191 29.9185 34.0191 29.2936 34.0191C28.2 34.0191 26.7939 33.0771 25.8565 33.0771C25.3097 33.0771 24.1379 33.2341 23.4349 34.4116C22.81 33.2341 21.5601 33.0771 21.0133 33.0771C19.9978 33.0771 18.6698 33.9406 17.5762 34.0191C16.9512 34.0191 16.795 34.0191 16.4044 33.8621L14.2953 41.5548C14.8421 41.7903 15.2327 41.7903 16.0138 41.7903C18.2792 41.7903 19.0604 40.6913 20.3884 40.6913C21.3257 40.6913 22.5756 40.8483 23.4349 42.3398C24.2942 40.8483 25.544 40.6913 26.4814 40.6913C27.8094 40.6913 28.5906 41.7903 30.8559 41.7903C31.6371 41.7903 32.0277 41.7118 32.5745 41.5548L30.4653 33.8621ZM20.0759 39.1214C20.0759 39.1999 19.9978 39.2784 19.9197 39.2784C19.8415 39.2784 19.7634 39.1999 19.7634 39.1214V38.1009H17.8105L16.7169 39.1999C16.6388 39.2784 16.6388 39.2784 16.5607 39.2784C16.4825 39.2784 16.4044 39.1999 16.4044 39.1214C16.4044 39.1214 16.4044 39.0429 16.4825 39.0429L19.6853 35.6675C19.7634 35.589 19.7634 35.589 19.8415 35.589C19.9197 35.589 19.9978 35.6675 19.9978 35.746V39.1214H20.0759ZM21.5601 39.2784H21.0133C20.9352 39.2784 20.857 39.1999 20.857 39.1214V37.63C20.857 37.5515 20.9352 37.473 21.0133 37.473H21.5601C22.0288 37.473 22.4194 37.8655 22.4194 38.3364C22.4194 38.8859 22.0288 39.2784 21.5601 39.2784ZM23.9036 36.688C23.9036 36.688 23.9036 36.6095 23.9817 36.6095L25.4659 35.1181C25.544 35.0396 25.544 35.0396 25.6221 35.0396C25.7003 35.0396 25.7784 35.1181 25.7784 35.1966V36.688C25.7784 36.7665 25.7003 36.845 25.6221 36.845C25.544 36.845 25.4659 36.7665 25.4659 36.688V36.2955H24.6847L24.216 36.7665C24.1379 36.845 24.1379 36.845 24.0598 36.845C23.9036 36.845 23.9036 36.7665 23.9036 36.688ZM25.544 37.7085H24.9191V39.1214C24.9191 39.1999 24.841 39.2784 24.7629 39.2784C24.6847 39.2784 24.6066 39.1999 24.6066 39.1214V37.7085H23.9817C23.9036 37.7085 23.8255 37.63 23.8255 37.5515C23.8255 37.473 23.9036 37.3945 23.9817 37.3945H25.4659C25.544 37.3945 25.6221 37.473 25.6221 37.5515C25.7003 37.7085 25.6221 37.7085 25.544 37.7085ZM26.4814 36.6095C26.7158 36.6095 26.872 36.531 26.872 36.1385V35.746C26.872 35.1181 27.2626 35.0396 27.575 35.0396C27.6532 35.0396 27.7313 35.1181 27.7313 35.1966C27.7313 35.2751 27.6532 35.3536 27.575 35.3536C27.3407 35.3536 27.1845 35.4321 27.1845 35.8245V36.217C27.1845 36.845 26.7939 36.9235 26.4814 36.9235C26.4033 36.9235 26.3252 36.845 26.3252 36.7665C26.3252 36.6095 26.4033 36.6095 26.4814 36.6095ZM27.7313 39.1999C27.6532 39.2784 27.575 39.1999 27.575 39.1999L26.9501 38.5719H26.5595V39.1214C26.5595 39.1999 26.4814 39.2784 26.4033 39.2784C26.3252 39.2784 26.2471 39.1999 26.2471 39.1214V37.63C26.2471 37.5515 26.3252 37.473 26.4033 37.473H27.1845C27.4969 37.473 27.7313 37.7085 27.7313 38.0225C27.7313 38.2579 27.575 38.4934 27.2626 38.5719L27.7313 39.0429C27.8094 39.0429 27.8094 39.1999 27.7313 39.1999ZM28.0437 35.903C28.0437 35.8245 28.1219 35.746 28.2 35.746H29.2936C29.3717 35.746 29.4498 35.8245 29.4498 35.903C29.4498 35.9815 29.3717 36.06 29.2936 36.06H28.2C28.1219 36.06 28.0437 35.9815 28.0437 35.903ZM29.9185 39.1214C29.9185 39.1999 29.8404 39.2784 29.7623 39.2784C29.6842 39.2784 29.6842 39.1999 29.6842 39.1214V38.7289H28.903L28.4343 39.1999C28.3562 39.2784 28.3562 39.2784 28.2781 39.2784C28.2 39.2784 28.1219 39.1999 28.1219 39.1214C28.1219 39.1214 28.1219 39.0429 28.2 39.0429L29.6842 37.5515C29.7623 37.473 29.7623 37.473 29.8404 37.473C29.9185 37.473 29.9966 37.5515 29.9966 37.63V39.1214H29.9185ZM19.7634 37.787V36.06L18.0449 37.787H19.7634ZM29.6842 38.4934V37.944L29.1374 38.4934H29.6842Z" fill="white"/>
<path d="M24.2941 17.9277C24.8409 18.2417 25.7783 18.5557 26.4814 18.5557H26.5595C26.872 18.5557 27.8094 18.2417 28.1999 17.9277C28.3562 17.8492 28.3562 17.6922 28.3562 17.6922C28.3562 17.6922 28.3562 17.6922 28.3562 17.6137C27.9656 17.1427 27.3407 16.9857 26.6376 16.9857C25.7002 16.9857 24.7628 17.2212 24.216 17.3782C24.2941 17.4567 24.2941 17.6137 24.2941 17.6922C24.3722 17.8492 24.3722 17.8492 24.2941 17.9277ZM9.13959 24.7569C9.13959 24.7569 9.21771 24.7569 9.13959 24.7569C9.99887 24.7569 10.8581 24.5214 11.405 24.1289C11.405 24.0504 11.405 23.9719 11.405 23.8934C11.405 23.8149 11.405 23.6579 11.4831 23.5795C10.9363 23.4225 9.99887 23.187 9.06148 23.187C8.35843 23.187 7.7335 23.344 7.34292 23.8149V23.8934C7.34292 23.8934 7.42104 24.0504 7.49915 24.1289C7.65539 24.2074 7.81162 24.3644 8.04597 24.4429C8.43655 24.5999 8.90524 24.7569 9.13959 24.7569ZM20.154 18.8696C19.9196 18.8696 19.529 18.7911 19.1385 18.6341C19.2166 18.8696 19.529 19.1836 19.9977 19.1836C20.3102 19.1836 20.7789 19.1051 21.3257 18.7126C21.0133 18.7911 20.6227 18.8696 20.154 18.8696C20.2321 18.8696 20.2321 18.8696 20.154 18.8696ZM26.5595 18.8696C26.1689 18.8696 25.7783 18.7911 25.3878 18.7126C25.9346 19.0266 26.4033 19.1836 26.7157 19.1836C27.2625 19.1836 27.4969 18.8696 27.575 18.6341C27.2625 18.7126 26.872 18.8696 26.5595 18.8696ZM15.467 25.0709C15.0764 25.0709 14.6858 24.9924 14.2953 24.9139C14.8421 25.2279 15.3108 25.3849 15.6232 25.3849C16.17 25.3849 16.4044 25.0709 16.4825 24.8354C16.17 24.9924 15.7795 25.0709 15.467 25.0709C15.5451 25.0709 15.5451 25.0709 15.467 25.0709ZM13.2797 24.2074C13.8266 24.5214 14.764 24.8354 15.467 24.8354H15.5451C15.8576 24.8354 16.795 24.5214 17.1856 24.2074C17.3418 24.1289 17.3418 23.9719 17.3418 23.9719C17.3418 23.9719 17.3418 23.9719 17.3418 23.8934C16.9512 23.4225 16.3263 23.2655 15.6232 23.2655C14.6858 23.2655 13.7484 23.501 13.2016 23.6579C13.2797 23.7364 13.2797 23.8934 13.2797 23.9719C13.2797 24.0504 13.2797 24.1289 13.2797 24.2074ZM9.13959 25.0709C8.90524 25.0709 8.51466 24.9924 8.12408 24.8354C8.2022 25.0709 8.51466 25.3849 8.98336 25.3849C9.29583 25.3849 9.76452 25.3064 10.3113 24.9139C9.99887 24.9924 9.60829 25.0709 9.13959 25.0709C9.21771 25.0709 9.13959 25.0709 9.13959 25.0709ZM37.7301 23.187C36.7927 23.187 35.8553 23.4225 35.3085 23.5795C35.3866 23.6579 35.3866 23.8149 35.3866 23.8934C35.3866 23.9719 35.3866 24.0504 35.3866 24.1289C35.9334 24.4429 36.8708 24.7569 37.5739 24.7569H37.652C37.9645 24.7569 38.9019 24.4429 39.2924 24.1289C39.4487 24.0504 39.4487 23.8934 39.4487 23.8934C39.4487 23.8934 39.4487 23.8934 39.4487 23.8149C39.1362 23.344 38.4332 23.187 37.7301 23.187ZM0 0.108887V0.501371C0 24.6784 9.45206 45.6371 23.2005 55.3707L23.4349 55.5277L23.6692 55.3707C37.3395 45.6371 46.7916 24.6784 46.7916 0.501371V0.108887H0ZM7.03046 23.8934C7.03046 23.8149 7.03046 23.7364 7.10857 23.6579C7.57727 23.1085 8.28031 22.9515 9.06148 22.9515C9.68641 22.9515 10.3113 23.03 10.8581 23.187C10.7019 23.03 10.6238 22.9515 10.4676 22.873C10.4676 22.873 10.4676 22.873 10.3895 22.7945C10.3895 22.7945 10.3113 22.559 10.077 22.245C9.92075 22.0095 9.68641 21.6955 9.53017 21.617C9.45206 21.617 9.45206 21.46 9.45206 21.46C9.45206 21.3815 9.60829 21.3815 9.60829 21.3815C10.077 21.6955 10.4676 22.4805 10.5457 22.6375C10.78 22.7945 11.0144 23.03 11.3268 23.344C11.405 23.344 11.4831 23.4225 11.5612 23.4225L11.6393 23.344C11.4831 23.2655 11.405 23.1085 11.405 22.9515C11.405 22.7945 11.4831 22.559 11.7174 22.4805C11.4831 22.3235 11.2487 22.0095 11.2487 21.617C11.2487 21.5385 11.3268 21.46 11.405 21.46C11.4831 21.46 11.5612 21.5385 11.5612 21.617C11.5612 21.931 11.7955 22.245 12.108 22.3235C12.1861 22.3235 12.2642 22.3235 12.3424 22.3235C12.4205 22.3235 12.4986 22.3235 12.5767 22.3235C12.8892 22.245 13.1235 21.931 13.1235 21.617C13.1235 21.5385 13.2016 21.46 13.2797 21.46C13.3579 21.46 13.436 21.5385 13.436 21.617C13.436 22.0095 13.2797 22.3235 12.9673 22.4805C13.1235 22.559 13.2797 22.7945 13.2797 22.9515C13.2797 23.1085 13.2016 23.2655 13.0454 23.344L13.1235 23.4225C13.2016 23.4225 13.2797 23.4225 13.3579 23.344C13.6703 23.03 13.9047 22.873 14.139 22.6375C14.2171 22.4805 14.6077 21.617 15.0764 21.3815C15.1545 21.3815 15.2327 21.3815 15.2327 21.46C15.2327 21.5385 15.2327 21.617 15.1545 21.617C14.9983 21.6955 14.764 22.0095 14.6077 22.245C14.4515 22.4805 14.2953 22.7945 14.2953 22.7945C14.2953 22.7945 14.2953 22.873 14.2171 22.873C14.0609 22.9515 13.9828 23.03 13.8266 23.187C14.3734 23.03 14.9983 22.9515 15.6232 22.9515C16.4044 22.9515 17.1074 23.1085 17.5761 23.6579C17.6543 23.7364 17.6543 23.8149 17.6543 23.8934C17.6543 24.0504 17.498 24.2074 17.3418 24.3644C17.1856 24.4429 17.0293 24.5999 16.8731 24.6784C16.8731 24.9924 16.4825 25.6204 15.6232 25.6204C15.467 25.6204 15.3889 25.6204 15.2327 25.5419C15.3108 25.6989 15.3108 25.8559 15.3889 26.0129C15.3889 26.0914 15.3108 26.1698 15.2327 26.1698C15.1545 26.1698 15.0764 26.0914 15.0764 26.0129C15.0764 25.7774 14.9983 25.5419 14.8421 25.3849C14.3734 25.2279 13.8266 24.9139 13.1235 24.3644C13.0454 24.5214 12.8892 24.5999 12.7329 24.6784C13.436 24.8354 14.3734 25.4634 14.4515 26.5623V26.6408C14.4515 26.6408 14.3734 26.7193 14.2953 26.9548C14.2171 27.1118 14.139 27.3473 14.139 27.5043C14.139 27.6613 14.139 27.7398 14.2953 27.8183C14.3734 27.8968 14.3734 27.9753 14.2953 28.0538L14.2171 28.1323H14.139C13.9828 27.9753 13.9047 27.7398 13.9047 27.5828C13.9047 27.1903 14.139 26.7978 14.2171 26.6408C14.139 25.9344 13.6703 25.4634 13.1235 25.2279C13.2016 25.3064 13.2016 25.3849 13.2797 25.3849C13.436 25.6989 13.436 26.0913 13.436 26.6408C13.436 27.6613 12.9673 28.5248 12.4986 28.6817V28.9957C12.4986 29.0742 12.4205 29.1527 12.3424 29.1527C12.2642 29.1527 12.1861 29.0742 12.1861 28.9957L12.108 28.6817C11.7174 28.5248 11.1706 27.6613 11.1706 26.6408C11.1706 26.0913 11.1706 25.6204 11.3268 25.3849C11.3268 25.3064 11.405 25.2279 11.4831 25.2279C10.9363 25.4634 10.4676 25.9344 10.4676 26.6408C10.5457 26.7978 10.78 27.1903 10.78 27.5828C10.78 27.8183 10.7019 27.9753 10.5457 28.1323H10.4676C10.3895 28.1323 10.3895 28.1323 10.3895 28.0538C10.3113 27.9753 10.3895 27.8968 10.3895 27.8183C10.4676 27.7398 10.5457 27.6613 10.5457 27.5043C10.5457 27.3473 10.4676 27.1118 10.3895 26.9548C10.2332 26.7978 10.1551 26.7193 10.1551 26.7193V26.6408C10.2332 25.5419 11.1706 24.9139 11.8737 24.7569C11.7174 24.6784 11.6393 24.5999 11.4831 24.4429C10.78 24.9924 10.2332 25.3064 9.76452 25.4634C9.68641 25.6204 9.60829 25.8559 9.53017 26.0913C9.53017 26.1698 9.45206 26.2483 9.37394 26.2483C9.29583 26.2483 9.21771 26.1698 9.21771 26.0913C9.21771 25.9344 9.29583 25.7774 9.37394 25.6204C9.21771 25.6204 9.06148 25.6989 8.98336 25.6989C8.12408 25.6989 7.81162 25.0709 7.7335 24.7569C7.57727 24.6784 7.34292 24.5214 7.2648 24.4429C7.10857 24.2074 7.03046 24.0504 7.03046 23.8934ZM23.4349 54.5857C16.9512 49.9544 11.4831 42.7327 7.49915 33.8625L23.4349 24.8354L39.2924 33.8625C35.3085 42.7327 29.8404 49.9544 23.4349 54.5857ZM21.4819 16.5932C21.4819 16.5932 21.4038 16.5932 21.4819 16.5932C21.4038 16.5147 21.3257 16.2792 21.1695 16.0437C21.0133 15.8083 20.7789 15.4943 20.6227 15.4158C20.5446 15.4158 20.5446 15.2588 20.5446 15.2588C20.5446 15.1803 20.7008 15.1803 20.7008 15.1803C21.1695 15.4943 21.5601 16.2792 21.6382 16.4362C21.8725 16.5932 22.1069 16.8287 22.4193 17.1427C22.4975 17.1427 22.5756 17.2212 22.6537 17.2212L22.7318 17.1427C22.5756 17.0642 22.4975 16.9072 22.4975 16.7502C22.4975 16.5932 22.5756 16.3577 22.8099 16.2792C22.5756 16.1222 22.3412 15.8083 22.3412 15.4158C22.3412 15.3373 22.4193 15.2588 22.4975 15.2588C22.5756 15.2588 22.6537 15.3373 22.6537 15.4158C22.6537 15.7298 22.888 16.0438 23.2005 16.1222C23.2786 16.1222 23.3567 16.1222 23.4349 16.1222C23.513 16.1222 23.5911 16.1222 23.6692 16.1222C23.9817 16.0438 24.216 15.7298 24.216 15.4158C24.216 15.3373 24.2941 15.2588 24.3722 15.2588C24.4504 15.2588 24.5285 15.3373 24.5285 15.4158C24.5285 15.8083 24.3722 16.1222 24.0598 16.2792C24.216 16.3577 24.3722 16.5932 24.3722 16.7502C24.3722 16.9072 24.2941 17.0642 24.1379 17.1427L24.216 17.2212C24.2941 17.2212 24.3722 17.2212 24.4504 17.1427C24.7628 16.8287 24.9972 16.6717 25.2315 16.4362C25.3096 16.2792 25.7002 15.4158 26.1689 15.1803C26.247 15.1803 26.3252 15.1803 26.3252 15.2588C26.3252 15.3373 26.3251 15.4158 26.247 15.4158C26.0908 15.4943 25.8565 15.8083 25.7002 16.0437C25.544 16.2792 25.3878 16.5932 25.3878 16.5932C25.3878 16.5932 25.3878 16.6717 25.3096 16.6717C25.1534 16.7502 25.0753 16.8287 24.9191 16.9857C25.4659 16.8287 26.0908 16.7502 26.7157 16.7502C27.4969 16.7502 28.1999 16.9072 28.6686 17.4567C28.7468 17.5352 28.7468 17.6137 28.7468 17.6922C28.7468 17.8492 28.5905 18.0062 28.4343 18.1632C28.2781 18.2417 28.1218 18.3987 27.9656 18.4772C27.9656 18.7911 27.575 19.4191 26.7157 19.4191C26.5595 19.4191 26.4814 19.4191 26.3252 19.3406C26.4033 19.4976 26.4033 19.6546 26.4814 19.8116C26.4814 19.8901 26.4033 19.9686 26.3252 19.9686C26.247 19.9686 26.1689 19.8901 26.1689 19.8116C26.1689 19.5761 26.0908 19.3406 25.9346 19.1836C25.4659 19.0266 24.9191 18.7126 24.216 18.1632C24.1379 18.3202 23.9817 18.3987 23.8254 18.4772C24.5285 18.6341 25.4659 19.2621 25.544 20.3611V20.4396C25.544 20.4396 25.4659 20.5181 25.3878 20.7536C25.3096 20.9106 25.2315 21.146 25.2315 21.303C25.2315 21.46 25.2315 21.5385 25.3878 21.617C25.4659 21.6955 25.4659 21.774 25.3878 21.8525L25.3096 21.931H25.2315C25.0753 21.774 24.9972 21.5385 24.9972 21.303C24.9972 20.9106 25.2315 20.5181 25.3096 20.3611C25.2315 19.6546 24.7628 19.1836 24.216 18.9481C24.2941 19.0266 24.2941 19.1051 24.3722 19.1051C24.5285 19.4191 24.5285 19.8116 24.5285 20.3611C24.5285 21.3815 24.0598 22.245 23.5911 22.402L23.513 22.716C23.513 22.7945 23.4349 22.873 23.3567 22.873C23.2786 22.873 23.2005 22.7945 23.2005 22.716L23.1224 22.402C22.7318 22.245 22.185 21.3815 22.185 20.3611C22.185 19.8116 22.185 19.3406 22.3412 19.1051C22.3412 19.0266 22.4193 18.9481 22.4975 18.9481C21.9506 19.1836 21.4819 19.6546 21.4819 20.3611C21.5601 20.5181 21.7944 20.9106 21.7944 21.303C21.7944 21.5385 21.7163 21.6955 21.5601 21.8525H21.4819C21.4038 21.8525 21.4038 21.8525 21.4038 21.774C21.3257 21.6955 21.4038 21.617 21.4038 21.5385C21.4819 21.46 21.5601 21.3815 21.5601 21.2245C21.5601 21.0676 21.4819 20.8321 21.4038 20.6751C21.3257 20.5181 21.2476 20.3611 21.2476 20.3611V20.2826C21.3257 19.1836 22.2631 18.5557 22.9662 18.3987C22.8099 18.3202 22.7318 18.2417 22.5756 18.0847C21.8725 18.6341 21.3257 18.9481 20.857 19.1051C20.7789 19.2621 20.7008 19.4976 20.6227 19.7331C20.6227 19.8116 20.5446 19.8901 20.4664 19.8901C20.3883 19.8901 20.3102 19.8116 20.3102 19.7331C20.3102 19.5761 20.3883 19.4191 20.4664 19.2621C20.3102 19.2621 20.154 19.3406 20.0759 19.3406C19.2166 19.3406 18.9041 18.7126 18.826 18.3987C18.6698 18.3202 18.4354 18.1632 18.3573 18.0847C18.2011 17.9277 18.0448 17.8492 18.0448 17.6137C18.0448 17.5352 18.0448 17.4567 18.123 17.3782C18.5917 16.8287 19.2947 16.6717 20.0759 16.6717C20.7008 16.6717 21.3257 16.7502 21.8725 16.9072C21.7163 16.8287 21.6382 16.7502 21.4819 16.5932ZM39.5268 24.3644C39.3705 24.4429 39.2143 24.5999 39.0581 24.6784C39.0581 24.9924 38.6675 25.6204 37.8082 25.6204C37.652 25.6204 37.5739 25.6204 37.4176 25.5419C37.4958 25.6989 37.4958 25.8559 37.5739 26.0129C37.5739 26.0914 37.4958 26.1698 37.4176 26.1698C37.3395 26.1698 37.2614 26.0914 37.2614 26.0129C37.2614 25.7774 37.1833 25.5419 37.0271 25.3849C36.5584 25.2279 36.0116 24.9139 35.3085 24.3644C35.2304 24.5214 35.0742 24.5999 34.9179 24.6784C35.621 24.8354 36.5584 25.4634 36.6365 26.5623V26.6408C36.6365 26.6408 36.5584 26.7193 36.4803 26.9548C36.4021 27.1118 36.324 27.3473 36.324 27.5043C36.324 27.6613 36.324 27.7398 36.4803 27.8183C36.5584 27.8968 36.5584 27.9753 36.4803 28.0538L36.4021 28.1323H36.324C36.1678 27.9753 36.0897 27.7398 36.0897 27.5828C36.0897 27.1903 36.324 26.7978 36.4021 26.6408C36.324 25.9344 35.8553 25.4634 35.3085 25.2279C35.3866 25.3064 35.3866 25.3849 35.4647 25.3849C35.621 25.6989 35.621 26.0913 35.621 26.6408C35.621 27.6613 35.1523 28.5248 34.6836 28.6817L34.6055 28.9957C34.6055 29.0742 34.5273 29.1527 34.4492 29.1527C34.3711 29.1527 34.293 29.0742 34.293 28.9957L34.2149 28.6817C33.8243 28.5248 33.2775 27.6613 33.2775 26.6408C33.2775 26.0913 33.2775 25.6204 33.4337 25.3849C33.4337 25.3064 33.5118 25.2279 33.59 25.2279C33.0431 25.4634 32.5744 25.9344 32.5744 26.6408C32.6526 26.7978 32.8869 27.1903 32.8869 27.5828C32.8869 27.8183 32.8088 27.9753 32.6526 28.1323H32.5744C32.4963 28.1323 32.4963 28.1323 32.4963 28.0538C32.4182 27.9753 32.4963 27.8968 32.4963 27.8183C32.5744 27.7398 32.6526 27.6613 32.6526 27.5043C32.6526 27.3473 32.5744 27.1118 32.4963 26.9548C32.4182 26.7978 32.3401 26.6408 32.3401 26.6408V26.5623C32.4182 25.4634 33.3556 24.8354 34.0587 24.6784C33.9024 24.5999 33.8243 24.5214 33.6681 24.3644C32.965 24.9139 32.4182 25.2279 31.9495 25.3849C31.8714 25.5419 31.7933 25.7774 31.7152 26.0129C31.7152 26.0914 31.6371 26.1698 31.5589 26.1698C31.4808 26.1698 31.4027 26.0914 31.4027 26.0129C31.4027 25.8559 31.4808 25.6989 31.5589 25.5419C31.4027 25.5419 31.2465 25.6204 31.1684 25.6204C30.3091 25.6204 29.9966 24.9924 29.9185 24.6784C29.7623 24.5999 29.5279 24.4429 29.4498 24.3644C29.2936 24.2074 29.1373 24.1289 29.1373 23.8934C29.1373 23.8149 29.1373 23.7364 29.2155 23.6579C29.6841 23.1085 30.3872 22.9515 31.1684 22.9515C31.7933 22.9515 32.4182 23.03 32.965 23.187C32.8088 23.03 32.7307 22.9515 32.5744 22.873C32.5744 22.873 32.5744 22.873 32.4963 22.7945C32.4963 22.7945 32.4182 22.559 32.1839 22.245C32.0276 22.0095 31.7933 21.6955 31.6371 21.617C31.5589 21.617 31.5589 21.46 31.5589 21.46C31.5589 21.3815 31.7152 21.3815 31.7152 21.3815C32.1839 21.6955 32.5744 22.4805 32.6526 22.6375C32.8869 22.7945 33.1213 23.03 33.4337 23.344C33.5118 23.344 33.59 23.4225 33.6681 23.4225L33.7462 23.344C33.6681 23.187 33.59 23.03 33.59 22.873C33.59 22.716 33.6681 22.4805 33.9024 22.402C33.6681 22.245 33.4337 21.931 33.4337 21.5385C33.4337 21.46 33.5118 21.3815 33.59 21.3815C33.6681 21.3815 33.7462 21.46 33.7462 21.5385C33.7462 21.8525 33.9805 22.1665 34.293 22.245C34.3711 22.245 34.4492 22.245 34.5273 22.245C34.6055 22.245 34.6836 22.245 34.7617 22.245C35.0742 22.1665 35.3085 21.8525 35.3085 21.5385C35.3085 21.46 35.3866 21.3815 35.4647 21.3815C35.5429 21.3815 35.621 21.46 35.621 21.5385C35.621 21.931 35.4647 22.245 35.1523 22.402C35.3085 22.4805 35.4647 22.716 35.4647 22.873C35.4647 23.03 35.3866 23.187 35.2304 23.2655L35.3085 23.344C35.3866 23.344 35.4647 23.344 35.5429 23.2655C35.8553 22.9515 36.0897 22.7945 36.324 22.559C36.4021 22.402 36.7927 21.5385 37.2614 21.303C37.3395 21.303 37.4176 21.303 37.4176 21.3815C37.4176 21.46 37.4176 21.5385 37.3395 21.5385C37.1833 21.617 36.9489 21.931 36.7927 22.1665C36.6365 22.402 36.4803 22.716 36.4803 22.716C36.4803 22.716 36.4803 22.7945 36.4021 22.7945C36.2459 22.873 36.1678 22.9515 36.0116 23.1085C36.5584 22.9515 37.1833 22.873 37.8082 22.873C38.5894 22.873 39.2924 23.03 39.7611 23.5795C39.8392 23.6579 39.8392 23.7364 39.8392 23.8149C39.7611 24.0504 39.683 24.2074 39.5268 24.3644ZM43.1201 23.1085L23.4349 11.9619L3.67146 23.1085C1.87479 16.2792 0.781162 8.74354 0.781162 0.893855H46.0104C46.0104 8.74354 44.9168 16.2792 43.1201 23.1085ZM37.5739 25.0709C37.1833 25.0709 36.7927 24.9924 36.4021 24.9139C36.9489 25.2279 37.4176 25.3849 37.7301 25.3849C38.2769 25.3849 38.5113 25.0709 38.5894 24.8354C38.2769 24.9924 37.8863 25.0709 37.5739 25.0709C37.652 25.0709 37.5739 25.0709 37.5739 25.0709ZM31.1684 23.187C30.4653 23.187 29.8404 23.344 29.4498 23.8149V23.8934C29.4498 23.8934 29.5279 24.0504 29.606 24.1289C29.7623 24.2074 29.9185 24.3644 30.1528 24.4429C30.5434 24.5999 31.0902 24.7569 31.3246 24.7569H31.4027C32.1839 24.7569 33.0431 24.5214 33.59 24.1289C33.59 24.0504 33.59 23.9719 33.59 23.8934C33.59 23.8149 33.59 23.6579 33.6681 23.5795C33.0431 23.501 32.0276 23.187 31.1684 23.187ZM18.3573 17.6137C18.3573 17.6137 18.3573 17.6922 18.3573 17.6137C18.3573 17.6922 18.3573 17.8492 18.5135 17.9277C18.6698 18.0062 18.826 18.1632 19.0603 18.2417C19.4509 18.3987 19.9977 18.5557 20.2321 18.5557H20.3102C21.0914 18.5557 21.9506 18.3202 22.4975 17.9277C22.4975 17.8492 22.4975 17.7707 22.4975 17.6922C22.4975 17.6137 22.4975 17.4567 22.5756 17.3782C22.0288 17.2212 21.0914 16.9857 20.154 16.9857C19.3728 16.9857 18.7479 17.1427 18.3573 17.6137ZM31.2465 25.0709C31.0121 25.0709 30.6215 24.9924 30.231 24.8354C30.3091 25.0709 30.6215 25.3849 31.0902 25.3849C31.4027 25.3849 31.8714 25.3064 32.4182 24.9139C32.1057 24.9924 31.7152 25.0709 31.2465 25.0709Z" fill="white"/>
</svg>
